<?xml version="1.0" encoding="utf-8"?>

<svg version="1.1" id="Capa_1" xmlns="http://www.w3.org/2000/svg" xmlns:xlink="http://www.w3.org/1999/xlink" x="0px" y="0px"
	viewBox="0 0 38 40" style="enable-background:new 0 0 38 40;" xml:space="preserve">
<style type="text/css">
	.st0{fill:#FFFFFF;}
	.st1{opacity:0.6;}
</style>
<g id="g4145">
	<path id="path5" class="st0" d="M19.1,34c-4.1,0-6.8-0.6-7.9-1.7c-0.5-0.6-0.6-1.1-0.6-1.3c0-0.7,0.1-2.9,0.6-3.8
		c0.1-0.3,0.5-1,4.5-2.4c-1.6-1.4-2.6-4-2.6-7.1c0-4.2,2.3-7,5.9-7.1h0.1c3.6,0.1,5.9,2.8,5.9,7.1c0,3.1-1,5.7-2.6,7.1
		c4,1.4,4.4,2.1,4.5,2.4c0.4,0.9,0.5,3.1,0.6,3.8c0,0.2,0,0.7-0.6,1.3C25.8,33.4,23.2,34,19.1,34z M19.1,32c5.1,0,6.2-0.9,6.4-1.1
		c-0.1-1.1-0.2-2.3-0.3-2.7c-0.6-0.4-2.9-1.3-4.8-1.9l-0.7-0.2l-0.1-2l0.7-0.3c1.7-0.6,2.8-3.1,2.8-6.1c0-3.1-1.5-5-3.9-5.1
		c-2.5,0-4,2-4,5.1c0,3,1.1,5.5,2.8,6.1l0.7,0.3l-0.1,2l-0.7,0.2c-1.9,0.6-4.2,1.5-4.8,1.9c-0.1,0.4-0.3,1.6-0.3,2.7
		C12.9,31.1,14.1,32,19.1,32z"/>
	<g id="g7" class="st1">
		<path id="path9" class="st0" d="M35.1,27.3c0-0.7-0.1-2.9-0.6-3.8c-0.1-0.3-0.5-1-4.5-2.4c1.6-1.4,2.6-4,2.6-7.1
			c0-4.2-2.3-7-5.9-7.1h-0.1c-1.9,0-3.5,0.8-4.5,2.2c0.6,0.3,1.2,0.6,1.8,1c0.7-0.8,1.6-1.3,2.8-1.3c2.4,0,3.9,2,3.9,5.1
			c0,3-1.1,5.5-2.8,6.1l-0.7,0.3l0.1,2l0.7,0.2c1.9,0.6,4.3,1.5,4.8,1.9c0.1,0.4,0.3,1.6,0.3,2.7c-0.2,0.2-1,0.8-3.8,1
			c0.1,0.6,0.2,1.2,0.2,2c2.5-0.2,4.2-0.8,5-1.6C35.1,28,35.1,27.5,35.1,27.3L35.1,27.3z"/>
		<path id="path11" class="st0" d="M5.1,27.2c0.1-1.1,0.2-2.3,0.3-2.7c0.6-0.4,2.9-1.3,4.8-1.9l0.7-0.2l0.1-2l-0.7-0.3
			C8.7,19.5,7.5,17,7.5,14c0-3.1,1.5-5,4-5.1c1.2,0,2.1,0.5,2.8,1.3c0.5-0.4,1.1-0.8,1.8-1c-1-1.4-2.6-2.2-4.5-2.2h-0.1
			c-3.6,0-5.9,2.8-5.9,7.1c0,3.1,1,5.7,2.6,7.1c-4,1.4-4.4,2.1-4.5,2.4c-0.4,0.9-0.5,3.1-0.6,3.8c0,0.2,0,0.7,0.6,1.3
			c0.8,0.9,2.5,1.4,5.1,1.6c0-0.7,0.1-1.4,0.2-2C6.1,28,5.3,27.4,5.1,27.2L5.1,27.2z"/>
	</g>
</g>
</svg>
